<?xml version="1.0" standalone="no"?>
<!DOCTYPE svg PUBLIC "-//W3C//DTD SVG 20010904//EN"
 "http://www.w3.org/TR/2001/REC-SVG-20010904/DTD/svg10.dtd">
<svg version="1.0" xmlns="http://www.w3.org/2000/svg"
 width="300.000000pt" height="300.000000pt" viewBox="0 0 300.000000 300.000000"
 preserveAspectRatio="xMidYMid meet">
<metadata>
Created by potrace 1.14, written by Peter Selinger 2001-2017
</metadata>
<g transform="translate(0.000000,300.000000) scale(0.100000,-0.100000)"
fill="#000000" stroke="none">
<path d="M1290 2994 c-249 -45 -433 -115 -618 -237 -328 -216 -544 -528 -643
-927 -21 -85 -24 -118 -24 -320 0 -180 4 -242 18 -310 118 -551 524 -989 1062
-1145 159 -46 270 -58 465 -52 137 4 198 11 280 30 291 69 521 197 730 407
215 214 353 468 417 770 26 121 26 458 0 580 -36 172 -116 372 -203 512 -86
138 -266 329 -394 419 -163 115 -327 191 -520 242 -108 28 -127 30 -330 33
-118 1 -226 0 -240 -2z"/>
</g>
</svg>
